# xmcd CD database file
#
# Track frame offsets:
#	150
#	21313
#	51698
#	66270
#	88263
#	113973
#	143521
#	162223
#	180315
#	200033
#	214628
#
# Disc length: 3345 seconds
#
# Revision: 4
# Processed by: cddbd v1.5.1PL0 Copyright (c) Steve Scherf et al.
# Submitted via: CDex 1.51
#
DISCID=a20d0f0b
DTITLE=Hells Cobra Blues Band - In the name of love
DYEAR=2000
DGENRE=Blues
TTITLE0=Boogie man
TTITLE1=Purple haze
TTITLE2=Mother Theresa
TTITLE3=Fever
TTITLE4=Nothing
TTITLE5=Mr. Tyson
TTITLE6=Still alive and well
TTITLE7=Promise land
TTITLE8=Angel of revenge
TTITLE9=#G812W
TTITLE10=In the name of love
EXTD=YEAR: 2000
EXTT0=
EXTT1=
EXTT2=
EXTT3=
EXTT4=
EXTT5=
EXTT6=
EXTT7=
EXTT8=
EXTT9=
EXTT10=
PLAYORDER=
